<?xml version="1.0" encoding="UTF-8" standalone="no"?>
<!DOCTYPE svg PUBLIC "-//W3C//DTD SVG 1.1//EN"
 "http://www.w3.org/Graphics/SVG/1.1/DTD/svg11.dtd">
<!-- Generated by graphviz version 2.36.0 (20140111.2315)
 -->
<!-- Title: empty_dict Pages: 1 -->
<svg width="346pt" height="272pt"
 viewBox="0.00 0.00 346.00 272.00" xmlns="http://www.w3.org/2000/svg" xmlns:xlink="http://www.w3.org/1999/xlink">
<g id="graph0" class="graph" transform="scale(1 1) rotate(0) translate(4 268)">
<title>empty_dict</title>
<polygon fill="white" stroke="none" points="-4,4 -4,-268 342,-268 342,4 -4,4"/>
<!-- dict -->
<g id="node1" class="node"><title>dict</title>
<polygon fill="#a8e270" stroke="black" points="0,-126 0,-264 84,-264 84,-126 0,-126"/>
<text text-anchor="middle" x="42" y="-248.8" font-family="'/usr/share/fonts/truetype/wqy/wqy-microhei.ttc'" font-size="14.00">dict</text>
<polyline fill="none" stroke="black" points="0,-241 84,-241 "/>
<text text-anchor="middle" x="42" y="-225.8" font-family="'/usr/share/fonts/truetype/wqy/wqy-microhei.ttc'" font-size="14.00">type</text>
<polyline fill="none" stroke="black" points="0,-218 84,-218 "/>
<text text-anchor="middle" x="42" y="-202.8" font-family="'/usr/share/fonts/truetype/wqy/wqy-microhei.ttc'" font-size="14.00">privdata</text>
<polyline fill="none" stroke="black" points="0,-195 84,-195 "/>
<text text-anchor="middle" x="42" y="-179.8" font-family="'/usr/share/fonts/truetype/wqy/wqy-microhei.ttc'" font-size="14.00">ht[2]</text>
<polyline fill="none" stroke="black" points="0,-172 84,-172 "/>
<text text-anchor="middle" x="42" y="-156.8" font-family="'/usr/share/fonts/truetype/wqy/wqy-microhei.ttc'" font-size="14.00">rehashidx</text>
<polyline fill="none" stroke="black" points="0,-149 84,-149 "/>
<text text-anchor="middle" x="42" y="-133.8" font-family="'/usr/share/fonts/truetype/wqy/wqy-microhei.ttc'" font-size="14.00">iterators</text>
</g>
<!-- ht0 -->
<g id="node2" class="node"><title>ht0</title>
<polygon fill="#95bbe3" stroke="black" points="148,-134.5 148,-249.5 246,-249.5 246,-134.5 148,-134.5"/>
<text text-anchor="middle" x="197" y="-234.3" font-family="'/usr/share/fonts/truetype/wqy/wqy-microhei.ttc'" font-size="14.00">dictht</text>
<polyline fill="none" stroke="black" points="148,-226.5 246,-226.5 "/>
<text text-anchor="middle" x="197" y="-211.3" font-family="'/usr/share/fonts/truetype/wqy/wqy-microhei.ttc'" font-size="14.00">table</text>
<polyline fill="none" stroke="black" points="148,-203.5 246,-203.5 "/>
<text text-anchor="middle" x="197" y="-188.3" font-family="'/usr/share/fonts/truetype/wqy/wqy-microhei.ttc'" font-size="14.00">size: 0</text>
<polyline fill="none" stroke="black" points="148,-180.5 246,-180.5 "/>
<text text-anchor="middle" x="197" y="-165.3" font-family="'/usr/share/fonts/truetype/wqy/wqy-microhei.ttc'" font-size="14.00">sizemask: 0</text>
<polyline fill="none" stroke="black" points="148,-157.5 246,-157.5 "/>
<text text-anchor="middle" x="197" y="-142.3" font-family="'/usr/share/fonts/truetype/wqy/wqy-microhei.ttc'" font-size="14.00">used: 0</text>
</g>
<!-- dict&#45;&gt;ht0 -->
<g id="edge1" class="edge"><title>dict:ht&#45;&gt;ht0:dictht</title>
<path fill="none" stroke="black" stroke-width="2" d="M84,-183C117.696,-183 112.231,-227.395 137.972,-236.413"/>
<polygon fill="black" stroke="black" stroke-width="2" points="137.576,-239.894 148,-238 138.67,-232.98 137.576,-239.894"/>
<text text-anchor="middle" x="116" y="-234.8" font-family="Times,serif" font-size="14.00">ht[0]</text>
</g>
<!-- ht1 -->
<g id="node3" class="node"><title>ht1</title>
<polygon fill="#95bbe3" stroke="black" points="148,-0.5 148,-115.5 246,-115.5 246,-0.5 148,-0.5"/>
<text text-anchor="middle" x="197" y="-100.3" font-family="'/usr/share/fonts/truetype/wqy/wqy-microhei.ttc'" font-size="14.00">dictht</text>
<polyline fill="none" stroke="black" points="148,-92.5 246,-92.5 "/>
<text text-anchor="middle" x="197" y="-77.3" font-family="'/usr/share/fonts/truetype/wqy/wqy-microhei.ttc'" font-size="14.00">table</text>
<polyline fill="none" stroke="black" points="148,-69.5 246,-69.5 "/>
<text text-anchor="middle" x="197" y="-54.3" font-family="'/usr/share/fonts/truetype/wqy/wqy-microhei.ttc'" font-size="14.00">size: 0</text>
<polyline fill="none" stroke="black" points="148,-46.5 246,-46.5 "/>
<text text-anchor="middle" x="197" y="-31.3" font-family="'/usr/share/fonts/truetype/wqy/wqy-microhei.ttc'" font-size="14.00">sizemask: 0</text>
<polyline fill="none" stroke="black" points="148,-23.5 246,-23.5 "/>
<text text-anchor="middle" x="197" y="-8.3" font-family="'/usr/share/fonts/truetype/wqy/wqy-microhei.ttc'" font-size="14.00">used: 0</text>
</g>
<!-- dict&#45;&gt;ht1 -->
<g id="edge2" class="edge"><title>dict:ht&#45;&gt;ht1:dictht</title>
<path fill="none" stroke="black" stroke-width="2" d="M84,-183C103.416,-183 120.041,-124.656 138.672,-108.247"/>
<polygon fill="black" stroke="black" stroke-width="2" points="140.349,-111.329 148,-104 137.449,-104.959 140.349,-111.329"/>
<text text-anchor="middle" x="116" y="-170.8" font-family="Times,serif" font-size="14.00">ht[1]</text>
</g>
<!-- null0 -->
<g id="node4" class="node"><title>null0</title>
<polygon fill="lightgrey" stroke="none" points="338,-233 284,-233 284,-197 338,-197 338,-233"/>
<text text-anchor="middle" x="311" y="-211.3" font-family="'/usr/share/fonts/truetype/wqy/wqy-microhei.ttc'" font-size="14.00">NULL</text>
</g>
<!-- ht0&#45;&gt;null0 -->
<g id="edge3" class="edge"><title>ht0:table&#45;&gt;null0</title>
<path fill="none" stroke="black" stroke-width="2" d="M246,-215C254.944,-215 264.592,-215 273.616,-215"/>
<polygon fill="black" stroke="black" stroke-width="2" points="273.844,-218.5 283.844,-215 273.844,-211.5 273.844,-218.5"/>
</g>
<!-- null1 -->
<g id="node5" class="node"><title>null1</title>
<polygon fill="lightgrey" stroke="none" points="338,-99 284,-99 284,-63 338,-63 338,-99"/>
<text text-anchor="middle" x="311" y="-77.3" font-family="'/usr/share/fonts/truetype/wqy/wqy-microhei.ttc'" font-size="14.00">NULL</text>
</g>
<!-- ht1&#45;&gt;null1 -->
<g id="edge4" class="edge"><title>ht1:table&#45;&gt;null1</title>
<path fill="none" stroke="black" stroke-width="2" d="M246,-81C254.944,-81 264.592,-81 273.616,-81"/>
<polygon fill="black" stroke="black" stroke-width="2" points="273.844,-84.5001 283.844,-81 273.844,-77.5001 273.844,-84.5001"/>
</g>
</g>
</svg>
