<?xml version="1.0" encoding="UTF-8" standalone="no"?>
<!DOCTYPE svg PUBLIC "-//W3C//DTD SVG 1.1//EN"
 "http://www.w3.org/Graphics/SVG/1.1/DTD/svg11.dtd">
<!-- Generated by graphviz version 2.36.0 (20140111.2315)
 -->
<!-- Title: after_key_collision Pages: 1 -->
<svg width="590pt" height="269pt"
 viewBox="0.00 0.00 590.00 269.00" xmlns="http://www.w3.org/2000/svg" xmlns:xlink="http://www.w3.org/1999/xlink">
<g id="graph0" class="graph" transform="scale(1 1) rotate(0) translate(4 265)">
<title>after_key_collision</title>
<polygon fill="white" stroke="none" points="-4,4 -4,-265 586,-265 586,4 -4,4"/>
<text text-anchor="middle" x="291" y="-7.8" font-family="Times,serif" font-size="14.00">添加碰撞节点之后</text>
<!-- bucket -->
<g id="node1" class="node"><title>bucket</title>
<polygon fill="#f2f2f2" stroke="black" points="0.5,-108 0.5,-238 95.5,-238 95.5,-108 0.5,-108"/>
<text text-anchor="middle" x="48" y="-222.8" font-family="'/usr/share/fonts/truetype/wqy/wqy-microhei.ttc'" font-size="14.00">dictEntry**</text>
<text text-anchor="middle" x="48" y="-207.8" font-family="'/usr/share/fonts/truetype/wqy/wqy-microhei.ttc'" font-size="14.00">(bucket)</text>
<polyline fill="none" stroke="black" points="0.5,-200 95.5,-200 "/>
<text text-anchor="middle" x="48" y="-184.8" font-family="'/usr/share/fonts/truetype/wqy/wqy-microhei.ttc'" font-size="14.00">0</text>
<polyline fill="none" stroke="black" points="0.5,-177 95.5,-177 "/>
<text text-anchor="middle" x="48" y="-161.8" font-family="'/usr/share/fonts/truetype/wqy/wqy-microhei.ttc'" font-size="14.00">1</text>
<polyline fill="none" stroke="black" points="0.5,-154 95.5,-154 "/>
<text text-anchor="middle" x="48" y="-138.8" font-family="'/usr/share/fonts/truetype/wqy/wqy-microhei.ttc'" font-size="14.00">2</text>
<polyline fill="none" stroke="black" points="0.5,-131 95.5,-131 "/>
<text text-anchor="middle" x="48" y="-115.8" font-family="'/usr/share/fonts/truetype/wqy/wqy-microhei.ttc'" font-size="14.00">3</text>
</g>
<!-- pair_2 -->
<g id="node3" class="node"><title>pair_2</title>
<polygon fill="#fadcad" stroke="black" points="132.5,-95 132.5,-141 293.5,-141 293.5,-95 132.5,-95"/>
<text text-anchor="middle" x="213" y="-125.8" font-family="'/usr/share/fonts/truetype/wqy/wqy-microhei.ttc'" font-size="14.00">dictEntry</text>
<polyline fill="none" stroke="black" points="132.5,-118 293.5,-118 "/>
<text text-anchor="middle" x="157.5" y="-102.8" font-family="'/usr/share/fonts/truetype/wqy/wqy-microhei.ttc'" font-size="14.00">key2</text>
<polyline fill="none" stroke="black" points="182.5,-95 182.5,-118 "/>
<text text-anchor="middle" x="214" y="-102.8" font-family="'/usr/share/fonts/truetype/wqy/wqy-microhei.ttc'" font-size="14.00">value2</text>
<polyline fill="none" stroke="black" points="245.5,-95 245.5,-118 "/>
<text text-anchor="middle" x="269.5" y="-102.8" font-family="'/usr/share/fonts/truetype/wqy/wqy-microhei.ttc'" font-size="14.00">next</text>
</g>
<!-- bucket&#45;&gt;pair_2 -->
<g id="edge5" class="edge"><title>bucket:table2&#45;&gt;pair_2:head</title>
<path fill="none" stroke="black" stroke-width="2" d="M96,-142C108.781,-142 113.179,-135.109 121.9,-131.771"/>
<polygon fill="black" stroke="black" stroke-width="2" points="122.755,-135.174 132,-130 121.546,-128.279 122.755,-135.174"/>
</g>
<!-- pair_3 -->
<g id="node4" class="node"><title>pair_3</title>
<polygon fill="#fadcad" stroke="black" points="132.5,-30 132.5,-76 293.5,-76 293.5,-30 132.5,-30"/>
<text text-anchor="middle" x="213" y="-60.8" font-family="'/usr/share/fonts/truetype/wqy/wqy-microhei.ttc'" font-size="14.00">dictEntry</text>
<polyline fill="none" stroke="black" points="132.5,-53 293.5,-53 "/>
<text text-anchor="middle" x="157.5" y="-37.8" font-family="'/usr/share/fonts/truetype/wqy/wqy-microhei.ttc'" font-size="14.00">key3</text>
<polyline fill="none" stroke="black" points="182.5,-30 182.5,-53 "/>
<text text-anchor="middle" x="214" y="-37.8" font-family="'/usr/share/fonts/truetype/wqy/wqy-microhei.ttc'" font-size="14.00">value3</text>
<polyline fill="none" stroke="black" points="245.5,-30 245.5,-53 "/>
<text text-anchor="middle" x="269.5" y="-37.8" font-family="'/usr/share/fonts/truetype/wqy/wqy-microhei.ttc'" font-size="14.00">next</text>
</g>
<!-- bucket&#45;&gt;pair_3 -->
<g id="edge7" class="edge"><title>bucket:table3&#45;&gt;pair_3:head</title>
<path fill="none" stroke="black" stroke-width="2" d="M96,-119C120.563,-119 108.481,-79.8414 122.165,-68.2162"/>
<polygon fill="black" stroke="black" stroke-width="2" points="123.583,-71.4349 132,-65 121.407,-64.7816 123.583,-71.4349"/>
</g>
<!-- pair_4 -->
<g id="node5" class="node"><title>pair_4</title>
<polygon fill="#ffc1c1" stroke="black" points="132.5,-215 132.5,-261 293.5,-261 293.5,-215 132.5,-215"/>
<text text-anchor="middle" x="213" y="-245.8" font-family="'/usr/share/fonts/truetype/wqy/wqy-microhei.ttc'" font-size="14.00">dictEntry</text>
<polyline fill="none" stroke="black" points="132.5,-238 293.5,-238 "/>
<text text-anchor="middle" x="157.5" y="-222.8" font-family="'/usr/share/fonts/truetype/wqy/wqy-microhei.ttc'" font-size="14.00">key4</text>
<polyline fill="none" stroke="black" points="182.5,-215 182.5,-238 "/>
<text text-anchor="middle" x="214" y="-222.8" font-family="'/usr/share/fonts/truetype/wqy/wqy-microhei.ttc'" font-size="14.00">value4</text>
<polyline fill="none" stroke="black" points="245.5,-215 245.5,-238 "/>
<text text-anchor="middle" x="269.5" y="-222.8" font-family="'/usr/share/fonts/truetype/wqy/wqy-microhei.ttc'" font-size="14.00">next</text>
</g>
<!-- bucket&#45;&gt;pair_4 -->
<g id="edge1" class="edge"><title>bucket:table0&#45;&gt;pair_4:head</title>
<path fill="none" stroke="black" stroke-width="2" d="M96,-189C123.299,-189 106.65,-234.873 122.276,-247.058"/>
<polygon fill="black" stroke="black" stroke-width="2" points="121.415,-250.454 132,-250 123.442,-243.754 121.415,-250.454"/>
</g>
<!-- null1 -->
<g id="node7" class="node"><title>null1</title>
<polygon fill="lightgrey" stroke="none" points="240,-196 186,-196 186,-160 240,-160 240,-196"/>
<text text-anchor="middle" x="213" y="-174.3" font-family="'/usr/share/fonts/truetype/wqy/wqy-microhei.ttc'" font-size="14.00">NULL</text>
</g>
<!-- bucket&#45;&gt;null1 -->
<g id="edge4" class="edge"><title>bucket:table1&#45;&gt;null1</title>
<path fill="none" stroke="black" stroke-width="2" d="M96,-165C122.887,-165 153.064,-168.492 175.897,-171.856"/>
<polygon fill="black" stroke="black" stroke-width="2" points="175.419,-175.324 185.834,-173.38 176.48,-168.405 175.419,-175.324"/>
</g>
<!-- pair_1 -->
<g id="node2" class="node"><title>pair_1</title>
<polygon fill="#fadcad" stroke="black" points="330.5,-191 330.5,-237 491.5,-237 491.5,-191 330.5,-191"/>
<text text-anchor="middle" x="411" y="-221.8" font-family="'/usr/share/fonts/truetype/wqy/wqy-microhei.ttc'" font-size="14.00">dictEntry</text>
<polyline fill="none" stroke="black" points="330.5,-214 491.5,-214 "/>
<text text-anchor="middle" x="355.5" y="-198.8" font-family="'/usr/share/fonts/truetype/wqy/wqy-microhei.ttc'" font-size="14.00">key1</text>
<polyline fill="none" stroke="black" points="380.5,-191 380.5,-214 "/>
<text text-anchor="middle" x="412" y="-198.8" font-family="'/usr/share/fonts/truetype/wqy/wqy-microhei.ttc'" font-size="14.00">value1</text>
<polyline fill="none" stroke="black" points="443.5,-191 443.5,-214 "/>
<text text-anchor="middle" x="467.5" y="-198.8" font-family="'/usr/share/fonts/truetype/wqy/wqy-microhei.ttc'" font-size="14.00">next</text>
</g>
<!-- null0 -->
<g id="node6" class="node"><title>null0</title>
<polygon fill="lightgrey" stroke="none" points="582,-220 528,-220 528,-184 582,-184 582,-220"/>
<text text-anchor="middle" x="555" y="-198.3" font-family="'/usr/share/fonts/truetype/wqy/wqy-microhei.ttc'" font-size="14.00">NULL</text>
</g>
<!-- pair_1&#45;&gt;null0 -->
<g id="edge3" class="edge"><title>pair_1:next&#45;&gt;null0</title>
<path fill="none" stroke="black" stroke-width="2" d="M492,-202C500.25,-202 509.116,-202 517.492,-202"/>
<polygon fill="black" stroke="black" stroke-width="2" points="517.754,-205.5 527.754,-202 517.754,-198.5 517.754,-205.5"/>
</g>
<!-- null2 -->
<g id="node8" class="node"><title>null2</title>
<polygon fill="lightgrey" stroke="none" points="438,-124 384,-124 384,-88 438,-88 438,-124"/>
<text text-anchor="middle" x="411" y="-102.3" font-family="'/usr/share/fonts/truetype/wqy/wqy-microhei.ttc'" font-size="14.00">NULL</text>
</g>
<!-- pair_2&#45;&gt;null2 -->
<g id="edge6" class="edge"><title>pair_2:next&#45;&gt;null2</title>
<path fill="none" stroke="black" stroke-width="2" d="M294,-106C320.6,-106 350.631,-106 373.471,-106"/>
<polygon fill="black" stroke="black" stroke-width="2" points="373.74,-109.5 383.74,-106 373.74,-102.5 373.74,-109.5"/>
</g>
<!-- null3 -->
<g id="node9" class="node"><title>null3</title>
<polygon fill="lightgrey" stroke="none" points="438,-59 384,-59 384,-23 438,-23 438,-59"/>
<text text-anchor="middle" x="411" y="-37.3" font-family="'/usr/share/fonts/truetype/wqy/wqy-microhei.ttc'" font-size="14.00">NULL</text>
</g>
<!-- pair_3&#45;&gt;null3 -->
<g id="edge8" class="edge"><title>pair_3:next&#45;&gt;null3</title>
<path fill="none" stroke="black" stroke-width="2" d="M294,-41C320.6,-41 350.631,-41 373.471,-41"/>
<polygon fill="black" stroke="black" stroke-width="2" points="373.74,-44.5001 383.74,-41 373.74,-37.5001 373.74,-44.5001"/>
</g>
<!-- pair_4&#45;&gt;pair_1 -->
<g id="edge2" class="edge"><title>pair_4:next&#45;&gt;pair_1:head</title>
<path fill="none" stroke="black" stroke-width="2" d="M294,-226C306,-226 311.25,-226 319.875,-226"/>
<polygon fill="black" stroke="black" stroke-width="2" points="320,-229.5 330,-226 320,-222.5 320,-229.5"/>
</g>
</g>
</svg>
